<svg xmlns="http://www.w3.org/2000/svg" height="123.44" viewBox="0 0 126.25 123.4375" enable-background="new 0 0 134.658 131.646"><path d="m7.868 5.152c-2.177 0-3.938 1.763-3.938 3.938v115.56c0 2.179 1.76 3.938 3.938 3.938h118.38c2.177 0 3.938-1.76 3.938-3.938v-115.56c0-2.176-1.762-3.938-3.938-3.938h-118.38m52.28 19.25h21.781l-7.188 4.5h-6.844c2.54 2.102 7.844 6.546 7.844 14.969 0 8.191-4.641 12.07-9.281 15.719-1.44 1.437-3.094 2.996-3.094 5.438 0 2.431 1.662 3.775 2.875 4.781l3.969 3.094c4.865 4.098 9.282 7.849 9.281 15.5 0 10.413-10.05 20.938-29.06 20.938-16.03 0-23.75-7.642-23.75-15.844 0-3.985 1.977-9.621 8.5-13.5 6.849-4.21 16.15-4.783 21.13-5.125-1.554-1.993-3.344-4.069-3.344-7.5 0-1.881.578-3.01 1.125-4.344-1.218.113-2.456.219-3.563.219-11.713 0-18.344-8.736-18.344-17.375 0-5.089 2.342-10.744 7.094-14.844 6.305-5.205 14.899-6.625 20.875-6.625m-8.06 4.188c-2.883 0-5.977 1.438-7.75 3.656-1.881 2.329-2.406 5.3-2.406 8.188 0 7.418 4.303 19.719 13.813 19.719 2.762 0 5.722-1.32 7.5-3.094 2.542-2.557 2.781-6.098 2.781-8.094 0-7.978-4.77-20.375-13.938-20.375m40.563 20.313h5.469v11.09h11.125v5.531h-11.125v11.125h-5.469v-11.125h-11.03v-5.531h11.03v-11.09m-35.16 29.09c-.996 0-6.954.22-11.594 1.781-2.433.881-9.5 3.542-9.5 11.406 0 7.866 7.612 13.5 19.438 13.5 10.614 0 16.25-5.11 16.25-11.969 0-5.664-3.624-8.642-12.03-14.625-.88-.111-1.458-.094-2.563-.094" fill="#fff" transform="translate(-3.93-5.152)"/></svg>