<?xml version="1.0" encoding="UTF-8" standalone="no"?>
<!-- Generator: Adobe Illustrator 16.0.0, SVG Export Plug-In . SVG Version: 6.00 Build 0)  -->

<svg
   xmlns:dc="http://purl.org/dc/elements/1.1/"
   xmlns:cc="http://creativecommons.org/ns#"
   xmlns:rdf="http://www.w3.org/1999/02/22-rdf-syntax-ns#"
   xmlns:svg="http://www.w3.org/2000/svg"
   xmlns="http://www.w3.org/2000/svg"
   xmlns:sodipodi="http://sodipodi.sourceforge.net/DTD/sodipodi-0.dtd"
   xmlns:inkscape="http://www.inkscape.org/namespaces/inkscape"
   version="1.1"
   id="Layer_1"
   x="0px"
   y="0px"
   width="126.25"
   height="123.4375"
   viewBox="0 0 126.25 123.4375"
   enable-background="new 0 0 134.658 131.646"
   xml:space="preserve"
   inkscape:version="0.48.5 r10040"
   sodipodi:docname="Google_plus.svg"><metadata
     id="metadata3055"><rdf:RDF><cc:Work
         rdf:about=""><dc:format>image/svg+xml</dc:format><dc:type
           rdf:resource="http://purl.org/dc/dcmitype/StillImage" /></cc:Work></rdf:RDF></metadata><defs
     id="defs3053" /><sodipodi:namedview
     pagecolor="#ffffff"
     bordercolor="#666666"
     borderopacity="1"
     objecttolerance="10"
     gridtolerance="10"
     guidetolerance="10"
     inkscape:pageopacity="0"
     inkscape:pageshadow="2"
     inkscape:window-width="1364"
     inkscape:window-height="743"
     id="namedview3051"
     showgrid="false"
     fit-margin-top="0"
     fit-margin-left="0"
     fit-margin-right="0"
     fit-margin-bottom="0"
     inkscape:zoom="3.820853"
     inkscape:cx="63.398842"
     inkscape:cy="62.766788"
     inkscape:window-x="0"
     inkscape:window-y="0"
     inkscape:window-maximized="0"
     inkscape:current-layer="Layer_1" /><g
     id="g3041"
     transform="translate(-3.9301606,-5.1522883)"><path
       style="fill:#ffffff"
       d="m 7.8676562,5.1522883 c -2.177,0 -3.9375,1.7625 -3.9375,3.9375 l 0,115.5625017 c 0,2.179 1.7605,3.9375 3.9375,3.9375 l 118.3750038,0 c 2.177,0 3.9375,-1.7595 3.9375,-3.9375 l 0,-115.5625017 c 0,-2.176 -1.7615,-3.9375 -3.9375,-3.9375 l -118.3750038,0 z m 52.2812498,19.2499997 21.78125,0 -7.1875,4.5 -6.84375,0 c 2.54,2.102 7.84375,6.54575 7.84375,14.96875 0,8.191 -4.64125,12.06675 -9.28125,15.71875 -1.44,1.437 -3.09375,2.9965 -3.09375,5.4375 0,2.431 1.662,3.77525 2.875,4.78125 l 3.96875,3.09375 c 4.865,4.098 9.28225,7.849 9.28125,15.5 0,10.413 -10.052501,20.937502 -29.0625,20.937502 -16.030999,0 -23.75,-7.64175 -23.75,-15.843752 0,-3.985 1.977,-9.621 8.5,-13.5 6.849,-4.21 16.148,-4.783 21.125,-5.125 -1.554,-1.993 -3.34375,-4.069 -3.34375,-7.5 0,-1.881 0.578,-3.01275 1.125,-4.34375 -1.218,0.113 -2.4565,0.21875 -3.5625,0.21875 -11.712999,0 -18.34375,-8.736 -18.34375,-17.375 0,-5.089 2.34175,-10.74375 7.09375,-14.84375 6.305,-5.205 14.899,-6.625 20.875,-6.625 z m -8.0625,4.1875 c -2.883,0 -5.977,1.43825 -7.75,3.65625 -1.881,2.329 -2.40625,5.2995 -2.40625,8.1875 0,7.418 4.302501,19.71875 13.8125,19.71875 2.762,0 5.722,-1.31975 7.5,-3.09375 2.542,-2.557 2.78125,-6.09775 2.78125,-8.09375 0,-7.978 -4.7695,-20.375 -13.9375,-20.375 z m 40.5625,20.3125 5.46875,0 0,11.09375 11.125004,0 0,5.53125 -11.125004,0 0,11.125 -5.46875,0 0,-11.125 -11.03125,0 0,-5.53125 11.03125,0 0,-11.09375 z m -35.15625,29.09375 c -0.996,0 -6.95375,0.22025 -11.59375,1.78125 -2.433,0.881 -9.5,3.54225 -9.5,11.40625 0,7.866 7.611501,13.500002 19.4375,13.500002 10.614,0 16.25,-5.109752 16.25,-11.968752 0,-5.664 -3.62425,-8.642 -12.03125,-14.625 -0.88,-0.111 -1.4575,-0.09375 -2.5625,-0.09375 z"
       id="path3043"
       inkscape:connector-curvature="0" /><g
       id="g3045" /></g></svg>