<svg xmlns="http://www.w3.org/2000/svg" viewBox="0 0 128 128"><g transform="matrix(1.0001 0 0 .9999 0 .013)" fill="#fff"><path d="m66.13 0c-1.068.049-1.698.249-2.406.5-4.441 1.573-6.378 4.995-6.375 11.281.001 1.78.518 19.562 1.156 39.5.638 19.938 1.374 43.03 1.625 51.31.331 10.897.582 15.622.906 17.16.797 3.764 3.267 6.565 6.781 7.688.917.293 2.558.553 3.656.563 2.168.017 46.934-7.537 49.44-8.344 2.089-.673 4.555-3.116 5.688-5.594 1.754-3.838 1.76-3.76.563-21.438-1.628-24.04-3.919-59.37-4.438-68.34-.513-8.89-.824-10.496-2.625-13.156-1.282-1.894-4.059-3.954-6.094-4.563-.833-.249-5.998-1.113-11.469-1.906-25.957-3.763-33.2-4.803-36.406-4.656m7.438 23.13c2.804-.089 8.18.27 20.656 1.219 15.16 1.152 16.989 1.343 18.09 1.906 1.857.947 3.419 2.551 4.281 4.313.756 1.544.794 1.857 1.469 13.469.381 6.551 1.179 19.539 1.75 28.844.961 15.647 1 17.03.594 18.438-.793 2.727-3.47 5.097-6.75 5.969-.641.17-8.868 1.091-18.281 2.063-9.413.972-17.789 1.757-18.594 1.75-2.63-.024-5.158-1.286-6.531-3.281-1.605-2.332-1.842-3.545-2.125-11.469-.143-4.02-.658-18.37-1.156-31.906-.835-22.675-.856-24.726-.438-26.16.592-2.02 1.965-3.672 3.813-4.531.78-.363 1.536-.571 3.219-.625"/><path d="m39.38 12.344c-.738.024-1.226.137-1.906.313-2.47.636-3.716 1.433-4.75 3.063-1.774 2.795-1.684-1.371-.813 46.38.788 43.16.858 45.791 1.688 47.656 1.193 2.681 3.255 4.319 6.25 4.969 1.013.22 2.109.393 2.438.406.825.032 16.278-1.965 16.438-2.125.125-.125-.492-19.864-.625-20-.036-.037-2.699.209-5.906.531-6.05.607-7.565.524-9.406-.438-1.676-.875-3.03-2.867-3.531-5.188-.152-.7-.531-12.733-.813-26.75-.577-28.736-.647-27.08 1.656-29.16 1.803-1.628 2.785-1.756 9.188-1.344 3.057.197 5.869.411 6.25.5l.719.188-.188-6.406c-.102-3.519-.254-7.455-.344-8.75l-.188-2.375-8.094-.813c-4.886-.499-6.832-.697-8.06-.656m34.781 12.313c-2.517.034-3.366.482-4.5 1.563-1.211 1.155-1.778 2.637-1.781 4.656-.002 1.421-.363 1.284 6.156 1.844 4.126.354 5.79 1.027 7.344 2.906 1.619 1.958 1.636 2.313 2.688 26.469 1.066 24.491 1.105 23.897-.5 26-.43.563-1.571 1.388-2.625 1.906-1.62.797-2.444.978-6.375 1.375-2.478.25-4.535.51-4.594.563-.058.052.053.772.25 1.625.744 3.221 2.573 5.237 5.281 5.781.71.143 1.749.221 2.313.156.563-.064 3.733-.414 7.03-.75 3.299-.336 6.087-.673 6.188-.781.101-.108-.563-16.455-1.469-36.31l-1.656-36.09-7-.563c-3.107-.238-5.24-.364-6.75-.344"/><path d="m17.09 27.03c-3.326.039-5.627 1.713-6.156 4.469-.112.585-.043 10 .156 20.938.594 32.611.842 41.26 1.25 42.625.495 1.65 2.213 3.304 3.969 3.844 1.864.572 2.817.548 8.844-.125 2.816-.315 5.3-.59 5.5-.594.286-.005.302-1.533.156-7.094-.102-3.899-.19-7.119-.219-7.156-.029-.038-1.934.074-4.219.25-5.121.395-6.446.226-7.844-1-1.951-1.712-1.885-1.11-2.344-21.438l-.438-18.469.625-1.219c.468-.916.967-1.37 1.969-1.813 1.242-.549 1.694-.574 6.469-.375l5.125.219-.188-5.938c-.109-3.269-.346-6.03-.5-6.125-.418-.258-9.769-1.028-12.156-1m27.563 5.188c-.958.026-1.72.085-2.031.188-2.233.737-3.306 3.111-2.969 6.469l.188 1.938 3.25.156c3.89.172 5.313.739 6.563 2.625l.813 1.219v17.469 17.469l-.875.938c-1.329 1.415-3.086 2.067-6.125 2.281l-2.656.188-.094 1.594c-.212 3.507.957 5.993 3.313 7.06.65.295 1.776.506 2.5.5 1.976-.016 8.41-.692 8.625-.906.264-.263.209-6.588-.281-28.594-.635-28.507-.717-29.458-1.906-30.09-.672-.359-5.439-.578-8.313-.5"/><path d="m6.406 44.13c-.694-.017-1.461.003-2.156.031-2.429.1-2.586.145-3.406 1.063l-.844.938v12.344c.001 6.791.082 14.253.188 16.563.175 3.828.249 4.257.875 5 .377.448 1.179.958 1.781 1.125.602.167 1.562.257 2.125.188.563-.069 1.909-.123 3-.125h2l-.094-3.75-.063-3.719-2.719-.156c-4.298-.233-3.992.569-4.094-11.281-.095-11.07-.127-10.928 2-11.5.687-.185 1.87-.239 2.781-.125l1.594.188v-3.219-3.25l-1.313-.188c-.357-.054-.963-.108-1.656-.125m11.156.5v3.094 3.125h.906c1.186 0 2.818.782 3.25 1.563.503.909.698 18.313.219 19.469-.384.927-1.818 1.75-3.03 1.75h-.781v2.594c0 1.427.087 3.03.188 3.531.179.893.235.907 1.844.906 1.884-.001 3.358-.639 4.219-1.813.567-.773.571-1.025.219-15.781-.309-12.951-.421-15.13-.844-16-.78-1.597-1.822-2.181-4.156-2.313l-2.031-.125"/></g></svg>