<?xml version="1.0" encoding="UTF-8" standalone="no"?>
<!-- Created with Inkscape (http://www.inkscape.org/) -->

<svg
   xmlns:dc="http://purl.org/dc/elements/1.1/"
   xmlns:cc="http://creativecommons.org/ns#"
   xmlns:rdf="http://www.w3.org/1999/02/22-rdf-syntax-ns#"
   xmlns:svg="http://www.w3.org/2000/svg"
   xmlns="http://www.w3.org/2000/svg"
   xmlns:sodipodi="http://sodipodi.sourceforge.net/DTD/sodipodi-0.dtd"
   xmlns:inkscape="http://www.inkscape.org/namespaces/inkscape"
   id="svg3039"
   version="1.1"
   inkscape:version="0.48.5 r10040"
   width="128"
   height="128"
   sodipodi:docname="phonegap.svg"
   inkscape:export-filename="/Users/andrew/Downloads/phonegap.png"
   inkscape:export-xdpi="90"
   inkscape:export-ydpi="90">
  <metadata
     id="metadata3045">
    <rdf:RDF>
      <cc:Work
         rdf:about="">
        <dc:format>image/svg+xml</dc:format>
        <dc:type
           rdf:resource="http://purl.org/dc/dcmitype/StillImage" />
        <dc:title></dc:title>
      </cc:Work>
    </rdf:RDF>
  </metadata>
  <defs
     id="defs3043" />
  <sodipodi:namedview
     pagecolor="#000000"
     bordercolor="#666666"
     borderopacity="1"
     objecttolerance="10"
     gridtolerance="10"
     guidetolerance="10"
     inkscape:pageopacity="0"
     inkscape:pageshadow="2"
     inkscape:window-width="1364"
     inkscape:window-height="743"
     id="namedview3041"
     showgrid="false"
     inkscape:zoom="3.5625"
     inkscape:cx="64"
     inkscape:cy="64"
     inkscape:window-x="0"
     inkscape:window-y="0"
     inkscape:window-maximized="0"
     inkscape:current-layer="svg3039"
     fit-margin-top="0"
     fit-margin-left="0"
     fit-margin-right="0"
     fit-margin-bottom="0" />
  <g
     id="g3107"
     transform="matrix(1.0000613,0,0,0.99989632,0,0.01324177)"
     style="fill:#ffffff">
    <path
       id="path3101"
       d="m 66.125,0 c -1.068199,0.04886078 -1.698193,0.24914 -2.40625,0.5 -4.44105,1.57344 -6.378,4.9951303 -6.375,11.28125 8.2e-4,1.77969 0.51778,19.56214 1.15625,39.5 0.63847,19.93785 1.37368,43.03186 1.625,51.3125 0.33074,10.89711 0.58158,15.62201 0.90625,17.15625 0.7966,3.76424 3.2675,6.56479 6.78125,7.6875 0.91701,0.293 2.55799,0.5535 3.65625,0.5625 2.16811,0.0171 46.9343,-7.53684 49.4375,-8.34375 2.08916,-0.67344 4.55531,-3.11621 5.6875,-5.59375 1.75408,-3.83841 1.75997,-3.76031 0.5625,-21.4375 -1.62821,-24.03581 -3.91935,-59.36842 -4.4375,-68.34375 -0.51324,-8.89039 -0.82403,-10.49581 -2.625,-13.15625 C 118.81128,9.2305003 116.03426,7.17072 114,6.5625 113.16668,6.31335 108.00198,5.44941 102.53125,4.65625 76.574598,0.89299751 69.329596,-0.14658234 66.125,0 z m 7.4375,23.125 c 2.804213,-0.08933 8.17985,0.270175 20.65625,1.21875 15.15606,1.15231 16.98881,1.34296 18.09375,1.90625 1.85665,0.94652 3.41858,2.55051 4.28125,4.3125 0.75589,1.54387 0.79424,1.85716 1.46875,13.46875 0.38056,6.5511 1.17876,19.53877 1.75,28.84375 0.96055,15.64664 1.00406,17.0271 0.59375,18.4375 -0.79329,2.72687 -3.47017,5.09698 -6.75,5.96875 -0.64093,0.17036 -8.86837,1.09084 -18.28125,2.0625 -9.41288,0.97166 -17.78924,1.757 -18.59375,1.75 C 74.15091,101.07004 71.62351,99.80763 70.25,97.8125 68.64469,95.48067 68.40768,94.26788 68.125,86.34375 67.9816,82.32402 67.46697,67.97416 66.96875,54.4375 66.13418,31.76228 66.11229,29.71174 66.53125,28.28125 c 0.59226,-2.02228 1.96542,-3.67177 3.8125,-4.53125 0.779865,-0.362884 1.536222,-0.5714 3.21875,-0.625 z"
       style="fill:#ffffff"
       inkscape:connector-curvature="0" />
    <path
       id="path3097"
       d="m 39.375,12.34375 c -0.738253,0.02425 -1.226382,0.137394 -1.90625,0.3125 -2.46978,0.63612 -3.71578,1.43287 -4.75,3.0625 -1.77353,2.79458 -1.68431,-1.37077 -0.8125,46.375 0.78797,43.15514 0.85767,45.79107 1.6875,47.65625 1.19274,2.68085 3.25533,4.31896 6.25,4.96875 1.01294,0.21979 2.10854,0.39345 2.4375,0.40625 0.82518,0.0321 16.2776,-1.96521 16.4375,-2.125 0.12507,-0.12498 -0.49191,-19.86431 -0.625,-20 -0.0364,-0.03712 -2.6985,0.20943 -5.90625,0.53125 -6.0462,0.60658 -7.56491,0.52377 -9.40625,-0.4375 C 41.10487,92.2186 39.75333,90.22687 39.25,87.90625 39.09822,87.20648 38.7189,75.17282 38.4375,61.15625 37.86059,32.42035 37.79016,34.07967 40.09375,32 c 1.80336,-1.62807 2.7846,-1.7559 9.1875,-1.34375 3.05717,0.19679 5.86941,0.4112 6.25,0.5 L 56.25,31.34375 56.0625,24.9375 c -0.10174,-3.51925 -0.25415,-7.45484 -0.34375,-8.75 L 55.53125,13.8125 47.4375,13 C 42.551344,12.5013 40.605422,12.303341 39.375,12.34375 z m 34.78125,12.3125 c -2.517465,0.03351 -3.366062,0.481606 -4.5,1.5625 -1.21133,1.15465 -1.77825,2.63723 -1.78125,4.65625 -0.0019,1.42087 -0.36254,1.28385 6.15625,1.84375 4.12584,0.35437 5.79024,1.0266 7.34375,2.90625 1.61866,1.95846 1.6358,2.31298 2.6875,26.46875 1.0663,24.49126 1.105,23.89723 -0.5,26 -0.42995,0.5633 -1.57101,1.38773 -2.625,1.90625 -1.62027,0.79709 -2.44449,0.97792 -6.375,1.375 -2.47753,0.25029 -4.53545,0.5103 -4.59375,0.5625 -0.05836,0.05222 0.05293,0.77218 0.25,1.625 0.74438,3.22143 2.57301,5.23708 5.28125,5.78125 0.7103,0.14286 1.74934,0.22075 2.3125,0.15625 0.56316,-0.06447 3.73273,-0.41431 7.03125,-0.75 3.29853,-0.33569 6.0866,-0.67304 6.1875,-0.78125 0.1009,-0.1082 -0.56334,-16.45504 -1.46875,-36.3125 L 87.90625,25.5625 80.90625,25 c -3.106538,-0.237889 -5.239521,-0.363855 -6.75,-0.34375 z"
       style="fill:#ffffff"
       inkscape:connector-curvature="0" />
    <path
       id="path3093"
       d="M 17.09375,27.03125 C 13.7673,27.06983 11.46688,28.74413 10.9375,31.5 c -0.11238,0.585 -0.04293,10.00384 0.15625,20.9375 0.59408,32.6109 0.84184,41.26368 1.25,42.625 0.49466,1.64987 2.21271,3.30441 3.96875,3.84375 1.86377,0.57243 2.81685,0.54833 8.84375,-0.125 2.81582,-0.31459 5.29958,-0.58975 5.5,-0.59375 0.28583,-0.005 0.30185,-1.53294 0.15625,-7.09375 -0.10209,-3.89914 -0.18995,-7.11855 -0.21875,-7.15625 -0.02879,-0.03771 -1.9339,0.07387 -4.21875,0.25 -5.12094,0.39475 -6.44606,0.22631 -7.84375,-1 C 16.58057,81.476 16.64661,82.07729 16.1875,61.75 L 15.75,43.28125 16.375,42.0625 c 0.46772,-0.91617 0.96667,-1.36955 1.96875,-1.8125 1.24218,-0.54908 1.69381,-0.57378 6.46875,-0.375 l 5.125,0.21875 -0.1875,-5.9375 c -0.1093,-3.26882 -0.34564,-6.0297 -0.5,-6.125 -0.41836,-0.25838 -9.7688,-1.0277 -12.15625,-1 z m 27.5625,5.1875 c -0.957949,0.02593 -1.719522,0.08469 -2.03125,0.1875 -2.23339,0.73655 -3.30619,3.11105 -2.96875,6.46875 l 0.1875,1.9375 3.25,0.15625 c 3.89036,0.17155 5.3134,0.73894 6.5625,2.625 l 0.8125,1.21875 0,17.46875 0,17.46875 -0.875,0.9375 c -1.32924,1.415 -3.08551,2.06735 -6.125,2.28125 L 40.8125,83.15625 40.71875,84.75 c -0.21158,3.50744 0.95721,5.9934 3.3125,7.0625 0.65028,0.29517 1.77593,0.506 2.5,0.5 1.9757,-0.01607 8.41037,-0.69177 8.625,-0.90625 C 55.41979,91.1429 55.36554,84.81847 54.875,62.8125 54.23955,34.30567 54.15819,33.35487 52.96875,32.71875 c -0.672135,-0.35946 -5.438654,-0.577801 -8.3125,-0.5 z"
       style="fill:#ffffff"
       inkscape:connector-curvature="0" />
    <path
       id="path3089"
       d="M 6.40625,44.125 C 5.7125725,44.1085 4.94504,44.1277 4.25,44.15625 1.82107,44.25598 1.66413,44.30123 0.84375,45.21875 L 0,46.15625 0,58.5 c 5.9000279e-4,6.79081 0.08176,14.25287 0.1875,16.5625 0.17524,3.82833 0.24933003,4.25698 0.875,5 0.37745,0.44827 1.17893,0.95797 1.78125,1.125 0.60232,0.16707 1.56183,0.2566 2.125,0.1875 0.56316,-0.06913 1.9091,-0.123 3,-0.125 l 2,0 L 9.875,77.5 9.8125,73.78125 7.09375,73.625 C 2.79566,73.39225 3.10193,74.19382 3,62.34375 2.90481,51.27778 2.8727,51.41616 5,50.84375 c 0.68746,-0.18497 1.87046,-0.23871 2.78125,-0.125 l 1.59375,0.1875 0,-3.21875 0,-3.25 L 8.0625,44.25 C 7.70507,44.19645 7.0999275,44.1415 6.40625,44.125 z m 11.15625,0.5 0,3.09375 0,3.125 0.90625,0 c 1.18595,0 2.81778,0.78173 3.25,1.5625 0.50315,0.90895 0.69768,18.31331 0.21875,19.46875 -0.38446,0.92747 -1.81761,1.75 -3.03125,1.75 l -0.78125,0 0,2.59375 c 0,1.427 0.08694,3.02878 0.1875,3.53125 0.1788,0.89332 0.23458,0.90683 1.84375,0.90625 1.88415,-5.2e-4 3.35798,-0.63887 4.21875,-1.8125 0.56702,-0.77311 0.57092,-1.02511 0.21875,-15.78125 C 24.28468,50.11194 24.17319,47.92958 23.75,47.0625 22.97034,45.465 21.92765,44.88179 19.59375,44.75 L 17.5625,44.625 z"
       style="fill:#ffffff"
       inkscape:connector-curvature="0" />
  </g>
</svg>
