<?xml version="1.0" encoding="UTF-8" standalone="no"?>
<svg
   xmlns:dc="http://purl.org/dc/elements/1.1/"
   xmlns:cc="http://creativecommons.org/ns#"
   xmlns:rdf="http://www.w3.org/1999/02/22-rdf-syntax-ns#"
   xmlns:svg="http://www.w3.org/2000/svg"
   xmlns="http://www.w3.org/2000/svg"
   xmlns:sodipodi="http://sodipodi.sourceforge.net/DTD/sodipodi-0.dtd"
   xmlns:inkscape="http://www.inkscape.org/namespaces/inkscape"
   enable-background="new 0 0 128 128"
   height="64.793121"
   id="Layer_1"
   version="1.1"
   viewBox="0 0 79.451248 64.793121"
   width="79.451248"
   xml:space="preserve"
   inkscape:version="0.48.5 r10040"
   sodipodi:docname="ruby.svg"><sodipodi:namedview
     pagecolor="#ffffff"
     bordercolor="#666666"
     borderopacity="1"
     objecttolerance="10"
     gridtolerance="10"
     guidetolerance="10"
     inkscape:pageopacity="0"
     inkscape:pageshadow="2"
     inkscape:window-width="1364"
     inkscape:window-height="743"
     id="namedview20409"
     showgrid="false"
     inkscape:zoom="2.6074563"
     inkscape:cx="121.93935"
     inkscape:cy="0.63413895"
     inkscape:window-x="0"
     inkscape:window-y="0"
     inkscape:window-maximized="0"
     inkscape:current-layer="Layer_1"
     fit-margin-top="0"
     fit-margin-left="0"
     fit-margin-right="0"
     fit-margin-bottom="0" /><metadata
     id="metadata20413"><rdf:RDF><cc:Work
         rdf:about=""><dc:format>image/svg+xml</dc:format><dc:type
           rdf:resource="http://purl.org/dc/dcmitype/StillImage" /><dc:title /></cc:Work></rdf:RDF></metadata><defs
     id="defs20411" /><path
     id="path21754"
     style="fill:#ffffff;fill-opacity:1;fill-rule:nonzero;stroke:none"
     d="m 15.826248,4.0075 -9.4812482,11.42375 16.9337482,0 4.74125,-11.42375 -12.19375,0 z m 10.49625,14.42875 13.4025,37.471125 13.40375,-37.471125 -26.80625,0 z m 0.11625,-3.005 26.57375,0 -4.74,-11.42375 -17.0925,0 -4.74125,11.42375 z m 29.7325,0 16.935,0 -9.48125,-11.42375 -12.19375,0 4.74,11.42375 z m 0.07,3.005 -12.0475,34.8325 28.9125,-34.8325 -16.865,0 z m -20.98375,34.8325 -12.04625,-34.8325 -16.8662482,0 28.9124982,34.8325 z M 14.054998,0 65.396248,0 79.451248,16.93375 39.724998,64.793125 -2.4877929e-7,16.93375 14.054998,0"
     inkscape:connector-curvature="0" /></svg>